<svg width="404" height="395" viewBox="0 0 404 395" fill="none" xmlns="http://www.w3.org/2000/svg">
<g filter="url(#filter0_d_42_2737)">
<rect x="21" y="21" width="362" height="352.812" rx="75" stroke="#333333" stroke-width="10" shape-rendering="crispEdges"/>
<rect x="28.8418" y="28.4648" width="346.316" height="337.882" rx="70.5" fill="white"/>
<rect x="28.8418" y="28.4648" width="346.316" height="337.882" rx="70.5" stroke="black"/>
<mask id="path-4-inside-1_42_2737" fill="white">
<path fill-rule="evenodd" clip-rule="evenodd" d="M143.945 49.2796C140.761 50.673 139.921 54.8099 142.318 57.2853C142.778 57.7599 143.501 58.2739 143.924 58.4272L144.693 58.7059V87.7377V116.77L150.038 122.121L155.383 127.472V133.082V138.693L154.581 138.76L153.78 138.826L153.718 140.68L153.657 142.534L151.563 142.608C149.678 142.674 149.394 142.739 148.715 143.258C147.303 144.338 147.259 144.588 147.259 151.548V157.78H145.335H143.411V158.53V159.279H118.865H94.3206L93.9464 158.43C93.7408 157.963 93.1415 157.201 92.6145 156.736C90.4804 154.854 87.5348 155.122 85.6122 157.372C83.2006 160.194 84.9408 164.674 88.725 165.385C90.6359 165.745 93.2176 164.25 93.934 162.371L94.2964 161.421H118.853H143.411V162.277V163.134H145.335H147.259V165.169V167.203H145.335H143.411V167.953V168.703H106.69H69.9698L64.2209 162.941L58.472 157.179L58.8241 156.297C59.3229 155.048 59.2669 153.593 58.6702 152.31C58.0331 150.939 57.1142 150.166 55.5978 149.725C52.4679 148.813 49.3418 151.154 49.3418 154.41C49.3418 156.424 50.2694 158.001 51.9877 158.906C53.0971 159.49 55.3205 159.548 56.3057 159.018L56.9624 158.665L63.0386 164.755L69.1148 170.844H106.263H143.411V171.594V172.343H145.335H147.259V175.012V177.681L145.388 177.743L143.517 177.805L143.451 178.608L143.385 179.411H124.284H105.184L104.948 178.734C104.091 176.271 100.975 174.878 98.5723 175.884C95.3416 177.236 94.3685 180.829 96.4814 183.604C97.2299 184.587 98.9815 185.408 100.331 185.408C102.347 185.408 104.435 183.905 105.02 182.035L105.171 181.553H124.29H143.411V182.302V183.052H145.335H147.259V184.543V186.033L145.388 186.095L143.517 186.157L143.451 186.96L143.385 187.764H136.697H130.009L129.383 186.537C128.675 185.15 127.595 184.294 126.019 183.872C124.142 183.369 121.888 184.373 120.829 186.183C118.984 189.336 120.851 193.187 124.464 193.683C126.41 193.95 128.708 192.652 129.438 190.873L129.835 189.907L136.623 189.906L143.411 189.905V190.655V191.404H145.335H147.259V193.225V195.045H145.335H143.411V195.795V196.544H141.273H139.135V197.615V198.686H141.26H143.385L143.451 199.489L143.517 200.292L145.388 200.354L147.259 200.416V202.335V204.255H145.335H143.411V205.004V205.754H139.545H135.68L128.268 201.765C124.191 199.572 119.646 197.114 118.169 196.304L115.482 194.831H90.7498C68.7644 194.831 66.0176 194.795 66.0176 194.506C66.0176 194.108 65.1535 192.716 64.5985 192.219C63.8838 191.58 62.3051 190.986 61.3142 190.983C60.1631 190.98 58.4554 191.735 57.6376 192.609C55.9211 194.443 55.9999 197.612 57.8067 199.404C60.434 202.009 64.6943 201.051 66.0003 197.562L66.2207 196.973H90.5268H114.833L116.455 197.867C117.346 198.358 119.808 199.693 121.924 200.832C124.041 201.972 127.853 204.028 130.396 205.4L135.02 207.895H139.215H143.411V208.752V209.609H145.335H147.259V211.849V214.09L145.388 214.152L143.517 214.213L143.451 214.909L143.383 215.605H135.885H128.387L125.155 213.53C123.378 212.389 120.51 210.558 118.78 209.461L115.636 207.467H109.661H103.687L103.451 206.79C102.347 203.618 97.8845 202.538 95.4479 204.855C94.4104 205.842 93.9481 206.982 93.9419 208.57C93.9372 209.782 94.0313 210.148 94.5741 211.027C96.6193 214.341 101.458 214.19 103.134 210.759L103.695 209.609H109.326H114.957L120.904 213.43C124.175 215.532 127.059 217.363 127.313 217.499C127.639 217.674 130.083 217.747 135.593 217.747H143.411V218.604V219.461H145.335H147.259V221.701V223.941L145.388 224.003L143.517 224.065L143.451 224.761L143.383 225.457H124.528H105.673L99.7969 231.347L93.9206 237.237L80.0225 237.231L66.1245 237.226L65.67 236.189C65.345 235.448 64.9183 234.945 64.1734 234.427C63.1851 233.74 63.0361 233.703 61.2791 233.703C59.5684 233.703 59.3561 233.752 58.4998 234.347C56.5477 235.702 55.8762 238.356 56.9178 240.597C58.59 244.195 64.0963 244.229 65.6647 240.652L66.1245 239.602L80.3402 239.598L94.5562 239.592L100.443 233.698L106.33 227.804L124.817 227.802L143.304 227.801L143.37 228.557L143.436 229.312H145.348H147.259V231.874V234.436L145.388 234.498L143.517 234.559L143.451 235.358C143.402 235.953 143.293 236.149 143.024 236.127C142.825 236.111 138.477 236.117 133.362 236.141L124.062 236.184L117.969 242.839C114.618 246.499 111.01 250.446 109.952 251.609L108.028 253.725L94.5589 253.727L81.09 253.729L79.3797 257.104C73.209 269.28 67.5961 280.269 67.2777 280.797C66.9393 281.359 66.7856 281.421 65.6589 281.454C64.2694 281.495 63.2796 281.919 62.2046 282.932C61.2808 283.803 60.9422 284.473 60.7703 285.771C60.5486 287.447 60.9599 288.57 62.2602 289.839C63.9609 291.499 65.9103 291.823 67.9317 290.78C70.7209 289.343 71.4614 285.788 69.489 283.307L68.8741 282.533L72.4859 275.466C74.4723 271.579 77.5244 265.603 79.2679 262.187L82.4382 255.976L95.7675 255.906L109.097 255.836L111.858 252.801C113.376 251.131 116.98 247.187 119.866 244.036L125.114 238.307H134.262H143.411V239.057V239.807H145.335H147.259V244.647C147.259 250.07 147.35 250.5 148.715 251.544C149.394 252.064 149.678 252.129 151.563 252.195L153.657 252.268L153.718 254.122L153.78 255.976L154.581 256.043L155.383 256.109V261.72V267.33L150.038 272.682L144.693 278.033V307.065V336.096L143.924 336.375C142.289 336.967 140.842 339.186 140.847 341.093C140.852 342.77 142.307 344.824 143.992 345.531C145.909 346.336 148.709 345.479 149.93 343.713C150.523 342.854 150.573 342.641 150.573 340.929C150.573 339.315 150.505 338.976 150.055 338.324C149.368 337.331 148.589 336.679 147.74 336.388L147.045 336.149V307.513V278.877L152.283 273.58L157.521 268.282V262.183V256.083H158.269H159.017V254.156V252.228H163.178H167.339L167.4 254.102L167.462 255.976L168.264 256.043L169.066 256.109V265.147V274.184L164.469 278.785L159.873 283.386L159.86 291.741L159.848 300.095L158.766 300.631C158.091 300.965 157.434 301.515 157.015 302.097C156.386 302.971 156.345 303.144 156.345 304.897C156.345 306.579 156.404 306.855 156.935 307.659C157.26 308.15 157.933 308.817 158.432 309.142C159.23 309.661 159.544 309.731 161.064 309.732C162.591 309.733 162.893 309.665 163.681 309.142C166.847 307.043 166.631 302.158 163.303 300.594L162.242 300.095L162.233 292.155L162.224 284.215L166.714 279.687L171.204 275.16V265.622V256.083H171.952H172.7V254.156V252.228H176.433H180.166L180.228 254.102L180.29 255.976L181.092 256.043L181.893 256.109V296.129V336.148L181.228 336.295C180.396 336.478 178.995 337.726 178.475 338.748C177.267 341.12 178.115 343.83 180.493 345.196C182.533 346.368 185.101 345.925 186.628 344.137C187.959 342.579 188.226 340.686 187.373 338.851C186.813 337.646 185.903 336.775 184.779 336.368L184.031 336.096V296.09V256.083H184.779H185.528V254.156V252.228H188.926C191.827 252.228 192.342 252.278 192.453 252.567C192.525 252.754 192.583 253.621 192.583 254.495V256.083H193.331H194.079V271.072V286.061L193.278 286.396C191.624 287.086 190.017 289.405 190.017 291.102C190.017 291.875 190.935 293.796 191.643 294.504C193.566 296.428 196.61 296.406 198.549 294.455C201.05 291.94 200.358 288.015 197.148 286.503L196.217 286.065V271.074V256.083H196.966H197.714V254.156V252.228H201.776H205.838V254.156V256.083H206.693H207.548V271.06V286.036L206.403 286.561C203.95 287.686 202.846 290.523 203.93 292.917C204.771 294.773 206.093 295.706 208.115 295.868C209.272 295.961 209.622 295.896 210.642 295.396C214.431 293.539 214.28 288.2 210.388 286.457L209.486 286.053L209.533 271.122L209.579 256.19L210.328 256.083L211.076 255.976L211.138 254.102L211.2 252.228H214.612H218.024V254.156V256.083H218.772H219.521V296.081V336.078L218.468 336.562C215.327 338.005 214.788 342.344 217.459 344.693C218.479 345.591 219.528 345.895 221.148 345.765C226.158 345.362 227.317 338.507 222.719 336.474C222.222 336.255 221.814 335.909 221.753 335.656C221.695 335.416 221.674 317.437 221.707 295.705L221.766 256.19L222.514 256.083L223.262 255.976L223.324 254.102L223.386 252.228H227.119H230.852V254.156V256.083H231.6H232.348V265.585V275.087L236.838 279.592L241.328 284.096V292.132V300.169L240.603 300.408C240.205 300.54 239.541 300.976 239.129 301.378C236.91 303.536 237.29 307.38 239.891 309.105C240.992 309.835 243.157 310.065 244.321 309.576C248.28 307.914 248.559 302.381 244.773 300.601L243.697 300.095L243.688 291.741L243.679 283.386L239.19 278.892L234.7 274.399V265.255V256.111L235.395 256.043L236.09 255.976L236.151 254.102L236.213 252.228H240.374H244.535V254.156V256.083H245.283H246.031V262.135V268.187L251.376 273.538L256.721 278.889V307.519V336.148L256.055 336.295C255.172 336.489 253.756 337.794 253.271 338.86C252.295 341.008 253.125 343.838 255.09 345.055C256.928 346.193 259.38 346.049 260.9 344.712C261.984 343.757 262.479 342.803 262.628 341.377C262.743 340.277 262.683 339.917 262.219 338.901C261.664 337.688 260.401 336.524 259.353 336.26L258.859 336.136V307.084V278.033L253.514 272.682L248.169 267.33V261.707V256.083H249.024H249.879V254.175V252.266L252.195 252.194C254.323 252.127 254.572 252.075 255.265 251.544C256.606 250.519 256.721 250.016 256.721 245.182V240.877H258.645H260.569V240.128V239.378H285.123H309.676L310.056 240.221C311.388 243.182 314.731 244.082 317.485 242.222C319.104 241.128 319.846 238.92 319.266 236.921C318.469 234.174 315.832 232.79 312.934 233.596C311.819 233.906 310.478 235.152 310.05 236.275L309.683 237.237H285.139H260.595L260.528 236.433L260.462 235.63L258.591 235.568L256.721 235.507V233.48V231.454H258.645H260.569V230.704V229.955H297.289H334.01L339.747 235.705L345.484 241.455L345.143 242.459C344.515 244.313 344.91 246.363 346.153 247.698C347.276 248.903 349.36 249.429 351.052 248.933C354.602 247.892 355.777 244.006 353.461 240.964C352.354 239.51 349.614 238.88 347.763 239.655L346.999 239.975L340.932 233.894L334.865 227.813H297.73H260.595L260.528 227.01L260.462 226.207L258.591 226.145L256.721 226.083V223.53V220.976L258.591 220.915L260.462 220.853L260.528 220.049L260.595 219.246H279.687H298.78L299.143 220.2C299.539 221.238 300.645 222.342 301.755 222.807C302.654 223.183 304.636 223.186 305.526 222.813C307.885 221.822 309.095 219.3 308.38 216.864C307.124 212.583 301.393 211.999 299.336 215.943L298.731 217.104L279.65 217.104L260.569 217.105V216.355V215.605H258.645H256.721V214.106V212.607H258.645H260.569V211.858V211.108H267.367H274.166L274.444 211.879C275.117 213.744 277.622 215.18 279.666 214.873C281.941 214.531 283.872 212.29 283.872 209.992C283.872 206.569 280.656 204.155 277.496 205.206C276.218 205.631 274.84 206.884 274.444 207.982L274.166 208.752H267.381H260.596L260.529 208.056L260.462 207.36L258.591 207.298L256.721 207.236V205.424V203.612H258.645H260.569V202.862V202.113H262.707H264.845V201.042V199.971H262.72H260.595L260.528 199.168L260.462 198.365L258.591 198.303L256.721 198.241V196.322V194.403H258.645H260.569V193.653V192.904H264.426H268.283L270.893 194.324C272.329 195.106 273.984 196.008 274.572 196.329C275.16 196.65 278.533 198.468 282.067 200.369L288.493 203.826H313.117H337.742L338.077 204.629C338.543 205.745 339.379 206.576 340.634 207.171C342.449 208.03 344.346 207.763 345.903 206.427C348.527 204.177 348.022 199.905 344.951 198.372C342.34 197.069 339.185 198.221 338.077 200.881L337.742 201.685H313.453H289.163L281.547 197.589C277.358 195.337 272.806 192.879 271.43 192.128L268.93 190.762H264.762H260.595L260.528 189.959L260.462 189.156L258.591 189.094L256.721 189.032V186.791V184.551H258.645H260.569V183.801V183.052H268.046H275.523L280.179 186.02C282.739 187.653 285.604 189.484 286.545 190.089L288.255 191.19H294.266H300.276L300.639 192.14C301.348 194.001 303.82 195.475 305.722 195.17C308.678 194.697 310.693 191.794 309.959 189.064C308.962 185.355 304.789 184.009 301.976 186.49C301.47 186.936 300.879 187.694 300.663 188.175L300.269 189.049H294.637H289.004L285.102 186.552C282.956 185.18 280.079 183.348 278.708 182.483L276.217 180.91H268.406H260.595L260.528 180.107L260.462 179.304L258.591 179.242L256.721 179.18V176.94V174.699H258.645H260.569V173.95V173.2H279.438H298.306L304.29 167.203L310.273 161.207H323.99H337.706L337.917 161.796C338.899 164.534 341.983 165.95 344.554 164.842C348.984 162.933 348.377 156.49 343.666 155.433C341.457 154.937 338.882 156.277 338.15 158.305C338 158.723 337.823 159.066 337.759 159.067C337.694 159.069 331.268 159.093 323.479 159.121L309.316 159.172L303.381 165.115L297.445 171.058H279.007H260.569V170.202V169.345H258.645H256.721V166.783V164.222L258.591 164.16L260.462 164.098L260.528 163.295L260.595 162.492L270.256 162.487L279.917 162.483L284.834 157.102C287.539 154.142 290.569 150.839 291.569 149.761C292.568 148.683 293.973 147.155 294.69 146.365L295.995 144.93L309.442 144.929L322.89 144.928L324.327 142.091C325.937 138.914 333.408 124.255 335.586 120L337 117.237L338.283 117.201C340.972 117.125 343.299 114.909 343.305 112.417C343.311 110.24 341.556 107.954 339.499 107.46C337.203 106.908 334.966 107.963 333.844 110.127C332.978 111.798 333.396 114.465 334.712 115.657C335.194 116.094 335.976 114.457 325.541 134.864L321.544 142.681L308.289 142.736L295.034 142.791L293.535 144.394C292.71 145.275 289.074 149.226 285.454 153.173L278.872 160.35H269.721H260.569V159.6V158.851H258.645H256.721V152.083C256.721 144.532 256.69 144.348 255.265 143.258C254.572 142.728 254.323 142.675 252.195 142.609L249.879 142.536V140.628V138.719H249.024H248.169V133.095V127.472L253.514 122.121L258.859 116.77V87.718V58.6662L259.353 58.542C260.361 58.2884 261.66 57.1159 262.186 55.9833C263.079 54.0631 262.814 52.221 261.418 50.6319C259.814 48.807 257.199 48.4414 255.09 49.7476C253.125 50.9643 252.295 53.7943 253.271 55.9427C253.756 57.0081 255.172 58.3131 256.055 58.5073L256.721 58.6538V87.2835V115.913L251.376 121.264L246.031 126.615V132.667V138.719H245.283H244.535V140.646V142.574H240.374H236.213L236.151 140.7L236.09 138.826L235.395 138.759L234.7 138.692V129.548V120.404L239.19 115.91L243.679 111.416V103.008C243.679 96.2381 243.734 94.6001 243.958 94.6001C244.112 94.6001 244.68 94.3185 245.222 93.9743C247.914 92.2642 248.239 88.3119 245.859 86.2193C244.693 85.1938 243.787 84.8972 242.173 85.0129C239.614 85.1964 237.898 86.8973 237.731 89.4157C237.58 91.7106 238.78 93.791 240.603 94.3939L241.328 94.6333V102.67V110.706L236.838 115.211L232.348 119.715V129.217V138.719H231.6H230.852V140.646V142.574H227.119H223.386L223.324 140.7L223.262 138.826L222.514 138.719L221.766 138.612L221.707 99.0977C221.674 77.3649 221.695 59.3867 221.753 59.146C221.814 58.8935 222.222 58.5476 222.719 58.3281C224.556 57.5162 225.604 55.8602 225.591 53.7881C225.582 52.1285 224.924 50.8859 223.522 49.88C221.717 48.5842 219.079 48.6838 217.459 50.1089C215.942 51.4434 215.363 53.505 215.981 55.3695C216.41 56.6653 217.667 58.04 218.749 58.3977L219.521 58.653V98.686V138.719H218.772H218.024V140.646V142.574H214.612H211.2L211.138 140.7L211.076 138.826L210.328 138.719L209.579 138.612L209.533 123.681L209.486 108.749L210.388 108.345C212.606 107.352 213.981 104.652 213.314 102.6C212.834 101.127 211.918 100.032 210.642 99.4063C209.622 98.9064 209.272 98.8411 208.115 98.934C206.093 99.0966 204.771 100.029 203.93 101.886C202.848 104.277 203.95 107.117 206.398 108.239L207.538 108.762L207.546 123.74L207.553 138.719H206.696H205.838V140.646V142.574H201.776H197.714V140.646V138.719H196.966H196.217V123.728V108.737L197.148 108.299C198.261 107.775 199.006 107.024 199.647 105.778C200.322 104.467 200.159 102.418 199.281 101.166C197.438 98.5404 193.914 98.1014 191.732 100.226C189.194 102.695 189.936 106.879 193.171 108.344L194.079 108.755V123.737V138.719H193.331H192.583V140.308C192.583 141.181 192.525 142.049 192.453 142.235C192.342 142.524 191.827 142.574 188.926 142.574H185.528V140.646V138.719H184.779H184.031V98.7124V58.7059L184.779 58.4347C185.903 58.0278 186.813 57.1561 187.373 55.9514C188.226 54.1162 187.959 52.2234 186.628 50.6649C185.665 49.5377 184.471 48.9929 182.951 48.9869C179.236 48.9721 176.837 52.7757 178.486 56.0643C178.992 57.0732 180.396 58.3244 181.228 58.5073L181.893 58.6538V98.6734V138.693L181.092 138.76L180.29 138.826L180.228 140.7L180.166 142.574H176.433H172.7V140.646V138.719H171.952H171.204V129.18V119.642L166.714 115.115L162.224 110.588L162.233 102.648L162.242 94.7072L163.303 94.2084C164.53 93.6323 165.492 92.3961 165.898 90.8747C166.379 89.0714 165.419 86.8125 163.681 85.6605C162.893 85.1377 162.591 85.0696 161.064 85.0705C159.544 85.0713 159.23 85.1416 158.432 85.6607C157.933 85.985 157.26 86.6521 156.935 87.1434C156.404 87.9474 156.345 88.2237 156.345 89.9053C156.345 91.6583 156.386 91.8313 157.015 92.7052C157.434 93.2871 158.091 93.8373 158.766 94.1718L159.848 94.7072L159.86 103.062L159.873 111.416L164.469 116.017L169.066 120.618V129.655V138.693L168.264 138.76L167.462 138.826L167.4 140.7L167.339 142.574H163.178H159.017V140.646V138.719H158.269H157.521V132.62V126.52L152.283 121.223L147.045 115.926V87.2893V58.653L147.74 58.4146C148.589 58.1233 149.368 57.4714 150.055 56.4781C150.505 55.8259 150.573 55.4873 150.573 53.8738C150.573 52.1611 150.523 51.948 149.93 51.0896C148.708 49.3223 145.834 48.4532 143.945 49.2796ZM147.515 50.8281C149.153 51.6663 149.838 53.9348 148.925 55.4942C148.201 56.7293 147.464 57.1859 146.032 57.2863C145.004 57.3583 144.68 57.29 144.072 56.8719C142.408 55.7281 141.926 54.0466 142.765 52.3106C143.628 50.5246 145.674 49.886 147.515 50.8281ZM184.907 51.0382C186.65 52.2326 186.955 54.4381 185.601 56.0508C184.858 56.9355 184.024 57.3347 182.919 57.3343C179.881 57.3332 178.319 53.8014 180.354 51.5348C181.535 50.2194 183.413 50.0145 184.907 51.0382ZM222.327 50.8167C223.664 51.5094 224.464 53.3334 224.044 54.7358C223.533 56.4466 222.329 57.3348 220.521 57.3348C218.023 57.3348 216.37 54.4265 217.611 52.2146C218.251 51.0735 219.908 50.1807 221.01 50.3824C221.417 50.4571 222.01 50.6525 222.327 50.8167ZM259.667 50.9493C262.426 52.6479 261.113 57.3348 257.879 57.3348C256.71 57.3348 256.125 57.1071 255.293 56.3279C252.272 53.5016 256.123 48.7669 259.667 50.9493ZM162.68 86.8012C165.162 88.0712 165.137 91.7063 162.637 93.0016C162.304 93.174 161.589 93.3151 161.048 93.3151C158.003 93.3151 156.408 89.825 158.442 87.6135C159.616 86.3379 161.186 86.0368 162.68 86.8012ZM244.484 86.9671C244.868 87.2192 245.385 87.8416 245.633 88.3503C246.778 90.7012 245.131 93.3151 242.503 93.3151C241.092 93.3151 240.115 92.6994 239.457 91.394C238.87 90.2298 238.85 89.4753 239.381 88.4342C240.414 86.4058 242.65 85.7631 244.484 86.9671ZM197.093 100.908C198.561 101.877 199.04 104.118 198.083 105.539C197.031 107.104 195.27 107.651 193.574 106.941C192.141 106.341 191.25 104.465 191.694 102.982C192.437 100.497 194.986 99.5183 197.093 100.908ZM209.802 100.571C212.652 101.868 212.755 105.778 209.97 106.944C206.321 108.472 203.295 104.005 206.111 101.247C207.211 100.169 208.429 99.9462 209.802 100.571ZM340.291 109.362C342.195 110.72 342.268 113.56 340.438 115.042C339.732 115.614 339.467 115.695 338.312 115.692C336.709 115.688 335.765 115.118 335.162 113.789C334.635 112.626 334.654 111.811 335.236 110.655C336.152 108.834 338.655 108.194 340.291 109.362ZM253.728 145.572C254.153 145.998 254.155 146.286 254.155 197.401C254.155 248.516 254.153 248.804 253.728 249.23C253.302 249.656 253.015 249.658 201.99 249.658C150.965 249.658 150.677 249.656 150.252 249.23C149.827 248.804 149.824 248.516 149.824 197.401C149.824 146.286 149.827 145.998 150.252 145.572C150.677 145.146 150.965 145.144 201.99 145.144C253.015 145.144 253.302 145.146 253.728 145.572ZM56.1325 151.499C57.9989 152.895 58.28 155.123 56.8021 156.809C55.2301 158.603 52.2628 158.205 51.1513 156.052C50.7543 155.283 50.7479 153.649 51.1387 152.897C51.5144 152.174 52.2787 151.449 52.9765 151.155C53.7594 150.826 55.483 151.013 56.1325 151.499ZM344.018 157.001C344.402 157.162 344.974 157.6 345.289 157.975C346.619 159.559 346.518 161.429 345.028 162.778C343.677 164 341.825 164.088 340.526 162.993C339.63 162.238 339.245 161.411 339.245 160.243C339.245 157.681 341.684 156.024 344.018 157.001ZM91.45 157.559C92.2416 158.124 92.9437 159.489 92.9508 160.477C92.9534 160.841 92.734 161.559 92.4631 162.072C91.9049 163.129 90.5424 163.991 89.4279 163.991C89.0534 163.991 88.328 163.769 87.8159 163.498C86.7457 162.931 85.9003 161.57 85.9003 160.415C85.9003 159.095 86.9475 157.604 88.2521 157.066C88.9443 156.781 90.7487 157.059 91.45 157.559ZM101.571 177.13C102.507 177.522 103.593 178.807 103.765 179.728C104.448 183.375 99.7945 185.481 97.5538 182.538C95.462 179.79 98.4185 175.811 101.571 177.13ZM126.527 185.675C127.83 186.335 128.445 187.313 128.445 188.727C128.445 191.431 125.644 193.119 123.324 191.813C120.806 190.395 120.976 186.801 123.618 185.6C124.766 185.078 125.378 185.094 126.527 185.675ZM307.118 187.26C308.059 187.963 308.513 188.748 308.619 189.851C308.925 193.041 305.384 194.877 302.951 192.791C301.028 191.142 301.355 188.178 303.586 187.038C304.511 186.565 306.343 186.68 307.118 187.26ZM63.1896 193.016C65.0483 194.116 65.2567 197.31 63.5571 198.65C61.0803 200.601 57.3227 198.535 57.8091 195.489C58.2236 192.892 60.9009 191.662 63.1896 193.016ZM344.41 199.674C345.679 200.317 346.49 202.139 346.114 203.502C345.457 205.887 342.969 206.903 340.841 205.654C339.792 205.038 339.245 204.044 339.245 202.755C339.245 200.018 341.929 198.417 344.41 199.674ZM100.439 205.436C101.642 206.052 102.475 207.665 102.257 208.958C101.943 210.819 100.633 211.962 98.813 211.964C96.9455 211.965 95.5394 210.668 95.3581 208.778C95.0947 206.033 97.9426 204.16 100.439 205.436ZM280.06 206.617C281.67 207.065 282.804 209.133 282.348 210.789C281.679 213.214 278.67 214.243 276.816 212.68C275.92 211.925 275.534 211.098 275.534 209.93C275.534 207.436 277.592 205.93 280.06 206.617ZM305.247 215.124C307.315 216.165 307.743 219.002 306.088 220.698C304.778 222.04 302.796 222.087 301.383 220.809C298.35 218.063 301.597 213.287 305.247 215.124ZM316.583 235.494C318.205 236.784 318.517 238.803 317.335 240.356C315.098 243.294 310.436 241.192 311.118 237.553C311.297 236.598 312.555 235.164 313.454 234.89C314.471 234.581 315.743 234.826 316.583 235.494ZM63.3365 235.609C64.319 236.36 64.7349 237.194 64.7349 238.414C64.7349 242.419 59.4236 243.248 57.9824 239.468C57.5433 238.316 57.7725 237.24 58.6903 236.147C59.8687 234.744 61.897 234.509 63.3365 235.609ZM351.223 241.145C352.527 241.805 353.141 242.783 353.141 244.197C353.141 247.451 349.335 248.923 347.121 246.526C345.519 244.79 346.113 242.071 348.314 241.069C349.462 240.547 350.074 240.563 351.223 241.145ZM67.6899 283.54C68.5282 284.059 69.2145 285.388 69.2164 286.495C69.2177 287.401 68.4839 288.754 67.6589 289.367C67.195 289.711 66.7409 289.815 65.6969 289.815C64.1162 289.815 63.4158 289.416 62.6538 288.082C60.8299 284.886 64.5074 281.569 67.6899 283.54ZM196.875 288.053C199.662 289.934 198.853 293.933 195.566 294.528C193.302 294.937 191.031 292.38 191.694 290.165C192.207 288.449 193.36 287.59 195.17 287.575C195.85 287.569 196.377 287.717 196.875 288.053ZM209.986 287.865C211.499 288.498 212.371 290.51 211.836 292.135C211.526 293.076 210.392 294.105 209.307 294.43C207.043 295.11 204.719 292.967 205.049 290.505C205.352 288.244 207.784 286.943 209.986 287.865ZM162.637 301.801C164.75 302.896 165.198 305.626 163.538 307.289C162.025 308.805 160.073 308.806 158.562 307.292C156.383 305.11 157.907 301.49 161.006 301.488C161.57 301.488 162.304 301.628 162.637 301.801ZM244.323 301.969C245.944 303.075 246.445 304.795 245.627 306.452C244.547 308.637 242.022 309.1 240.152 307.455C238.45 305.959 238.75 303.129 240.738 301.914C241.723 301.312 243.397 301.338 244.323 301.969ZM147.85 338.037C150.629 340.102 149.207 344.426 145.762 344.383C143.718 344.358 142.168 342.583 142.399 340.534C142.524 339.425 143.02 338.654 144.072 337.93C144.68 337.512 145.004 337.444 146.032 337.516C146.827 337.572 147.472 337.757 147.85 338.037ZM184.444 337.781C185.263 338.205 186.109 339.251 186.355 340.141C187.014 342.532 184.508 344.969 182.066 344.31C179.035 343.492 178.511 339.251 181.267 337.843C182.161 337.386 183.627 337.358 184.444 337.781ZM222.677 338.029C223.371 338.536 224.224 340.116 224.224 340.894C224.224 341.741 223.341 343.301 222.572 343.812C221.411 344.585 220.491 344.642 219.22 344.019C216.61 342.74 216.437 339.602 218.885 337.936C219.506 337.513 219.829 337.444 220.86 337.516C221.641 337.571 222.306 337.759 222.677 338.029ZM259.502 337.949C260.557 338.669 261.045 339.457 261.157 340.626C261.47 343.889 257.627 345.7 255.312 343.381C254.361 342.429 254.005 341.169 254.356 339.997C254.625 339.097 255.589 337.998 256.396 337.67C257.272 337.314 258.767 337.449 259.502 337.949Z"/>
</mask>
<path fill-rule="evenodd" clip-rule="evenodd" d="M143.945 49.2796C140.761 50.673 139.921 54.8099 142.318 57.2853C142.778 57.7599 143.501 58.2739 143.924 58.4272L144.693 58.7059V87.7377V116.77L150.038 122.121L155.383 127.472V133.082V138.693L154.581 138.76L153.78 138.826L153.718 140.68L153.657 142.534L151.563 142.608C149.678 142.674 149.394 142.739 148.715 143.258C147.303 144.338 147.259 144.588 147.259 151.548V157.78H145.335H143.411V158.53V159.279H118.865H94.3206L93.9464 158.43C93.7408 157.963 93.1415 157.201 92.6145 156.736C90.4804 154.854 87.5348 155.122 85.6122 157.372C83.2006 160.194 84.9408 164.674 88.725 165.385C90.6359 165.745 93.2176 164.25 93.934 162.371L94.2964 161.421H118.853H143.411V162.277V163.134H145.335H147.259V165.169V167.203H145.335H143.411V167.953V168.703H106.69H69.9698L64.2209 162.941L58.472 157.179L58.8241 156.297C59.3229 155.048 59.2669 153.593 58.6702 152.31C58.0331 150.939 57.1142 150.166 55.5978 149.725C52.4679 148.813 49.3418 151.154 49.3418 154.41C49.3418 156.424 50.2694 158.001 51.9877 158.906C53.0971 159.49 55.3205 159.548 56.3057 159.018L56.9624 158.665L63.0386 164.755L69.1148 170.844H106.263H143.411V171.594V172.343H145.335H147.259V175.012V177.681L145.388 177.743L143.517 177.805L143.451 178.608L143.385 179.411H124.284H105.184L104.948 178.734C104.091 176.271 100.975 174.878 98.5723 175.884C95.3416 177.236 94.3685 180.829 96.4814 183.604C97.2299 184.587 98.9815 185.408 100.331 185.408C102.347 185.408 104.435 183.905 105.02 182.035L105.171 181.553H124.29H143.411V182.302V183.052H145.335H147.259V184.543V186.033L145.388 186.095L143.517 186.157L143.451 186.96L143.385 187.764H136.697H130.009L129.383 186.537C128.675 185.15 127.595 184.294 126.019 183.872C124.142 183.369 121.888 184.373 120.829 186.183C118.984 189.336 120.851 193.187 124.464 193.683C126.41 193.95 128.708 192.652 129.438 190.873L129.835 189.907L136.623 189.906L143.411 189.905V190.655V191.404H145.335H147.259V193.225V195.045H145.335H143.411V195.795V196.544H141.273H139.135V197.615V198.686H141.26H143.385L143.451 199.489L143.517 200.292L145.388 200.354L147.259 200.416V202.335V204.255H145.335H143.411V205.004V205.754H139.545H135.68L128.268 201.765C124.191 199.572 119.646 197.114 118.169 196.304L115.482 194.831H90.7498C68.7644 194.831 66.0176 194.795 66.0176 194.506C66.0176 194.108 65.1535 192.716 64.5985 192.219C63.8838 191.58 62.3051 190.986 61.3142 190.983C60.1631 190.98 58.4554 191.735 57.6376 192.609C55.9211 194.443 55.9999 197.612 57.8067 199.404C60.434 202.009 64.6943 201.051 66.0003 197.562L66.2207 196.973H90.5268H114.833L116.455 197.867C117.346 198.358 119.808 199.693 121.924 200.832C124.041 201.972 127.853 204.028 130.396 205.4L135.02 207.895H139.215H143.411V208.752V209.609H145.335H147.259V211.849V214.09L145.388 214.152L143.517 214.213L143.451 214.909L143.383 215.605H135.885H128.387L125.155 213.53C123.378 212.389 120.51 210.558 118.78 209.461L115.636 207.467H109.661H103.687L103.451 206.79C102.347 203.618 97.8845 202.538 95.4479 204.855C94.4104 205.842 93.9481 206.982 93.9419 208.57C93.9372 209.782 94.0313 210.148 94.5741 211.027C96.6193 214.341 101.458 214.19 103.134 210.759L103.695 209.609H109.326H114.957L120.904 213.43C124.175 215.532 127.059 217.363 127.313 217.499C127.639 217.674 130.083 217.747 135.593 217.747H143.411V218.604V219.461H145.335H147.259V221.701V223.941L145.388 224.003L143.517 224.065L143.451 224.761L143.383 225.457H124.528H105.673L99.7969 231.347L93.9206 237.237L80.0225 237.231L66.1245 237.226L65.67 236.189C65.345 235.448 64.9183 234.945 64.1734 234.427C63.1851 233.74 63.0361 233.703 61.2791 233.703C59.5684 233.703 59.3561 233.752 58.4998 234.347C56.5477 235.702 55.8762 238.356 56.9178 240.597C58.59 244.195 64.0963 244.229 65.6647 240.652L66.1245 239.602L80.3402 239.598L94.5562 239.592L100.443 233.698L106.33 227.804L124.817 227.802L143.304 227.801L143.37 228.557L143.436 229.312H145.348H147.259V231.874V234.436L145.388 234.498L143.517 234.559L143.451 235.358C143.402 235.953 143.293 236.149 143.024 236.127C142.825 236.111 138.477 236.117 133.362 236.141L124.062 236.184L117.969 242.839C114.618 246.499 111.01 250.446 109.952 251.609L108.028 253.725L94.5589 253.727L81.09 253.729L79.3797 257.104C73.209 269.28 67.5961 280.269 67.2777 280.797C66.9393 281.359 66.7856 281.421 65.6589 281.454C64.2694 281.495 63.2796 281.919 62.2046 282.932C61.2808 283.803 60.9422 284.473 60.7703 285.771C60.5486 287.447 60.9599 288.57 62.2602 289.839C63.9609 291.499 65.9103 291.823 67.9317 290.78C70.7209 289.343 71.4614 285.788 69.489 283.307L68.8741 282.533L72.4859 275.466C74.4723 271.579 77.5244 265.603 79.2679 262.187L82.4382 255.976L95.7675 255.906L109.097 255.836L111.858 252.801C113.376 251.131 116.98 247.187 119.866 244.036L125.114 238.307H134.262H143.411V239.057V239.807H145.335H147.259V244.647C147.259 250.07 147.35 250.5 148.715 251.544C149.394 252.064 149.678 252.129 151.563 252.195L153.657 252.268L153.718 254.122L153.78 255.976L154.581 256.043L155.383 256.109V261.72V267.33L150.038 272.682L144.693 278.033V307.065V336.096L143.924 336.375C142.289 336.967 140.842 339.186 140.847 341.093C140.852 342.77 142.307 344.824 143.992 345.531C145.909 346.336 148.709 345.479 149.93 343.713C150.523 342.854 150.573 342.641 150.573 340.929C150.573 339.315 150.505 338.976 150.055 338.324C149.368 337.331 148.589 336.679 147.74 336.388L147.045 336.149V307.513V278.877L152.283 273.58L157.521 268.282V262.183V256.083H158.269H159.017V254.156V252.228H163.178H167.339L167.4 254.102L167.462 255.976L168.264 256.043L169.066 256.109V265.147V274.184L164.469 278.785L159.873 283.386L159.86 291.741L159.848 300.095L158.766 300.631C158.091 300.965 157.434 301.515 157.015 302.097C156.386 302.971 156.345 303.144 156.345 304.897C156.345 306.579 156.404 306.855 156.935 307.659C157.26 308.15 157.933 308.817 158.432 309.142C159.23 309.661 159.544 309.731 161.064 309.732C162.591 309.733 162.893 309.665 163.681 309.142C166.847 307.043 166.631 302.158 163.303 300.594L162.242 300.095L162.233 292.155L162.224 284.215L166.714 279.687L171.204 275.16V265.622V256.083H171.952H172.7V254.156V252.228H176.433H180.166L180.228 254.102L180.29 255.976L181.092 256.043L181.893 256.109V296.129V336.148L181.228 336.295C180.396 336.478 178.995 337.726 178.475 338.748C177.267 341.12 178.115 343.83 180.493 345.196C182.533 346.368 185.101 345.925 186.628 344.137C187.959 342.579 188.226 340.686 187.373 338.851C186.813 337.646 185.903 336.775 184.779 336.368L184.031 336.096V296.09V256.083H184.779H185.528V254.156V252.228H188.926C191.827 252.228 192.342 252.278 192.453 252.567C192.525 252.754 192.583 253.621 192.583 254.495V256.083H193.331H194.079V271.072V286.061L193.278 286.396C191.624 287.086 190.017 289.405 190.017 291.102C190.017 291.875 190.935 293.796 191.643 294.504C193.566 296.428 196.61 296.406 198.549 294.455C201.05 291.94 200.358 288.015 197.148 286.503L196.217 286.065V271.074V256.083H196.966H197.714V254.156V252.228H201.776H205.838V254.156V256.083H206.693H207.548V271.06V286.036L206.403 286.561C203.95 287.686 202.846 290.523 203.93 292.917C204.771 294.773 206.093 295.706 208.115 295.868C209.272 295.961 209.622 295.896 210.642 295.396C214.431 293.539 214.28 288.2 210.388 286.457L209.486 286.053L209.533 271.122L209.579 256.19L210.328 256.083L211.076 255.976L211.138 254.102L211.2 252.228H214.612H218.024V254.156V256.083H218.772H219.521V296.081V336.078L218.468 336.562C215.327 338.005 214.788 342.344 217.459 344.693C218.479 345.591 219.528 345.895 221.148 345.765C226.158 345.362 227.317 338.507 222.719 336.474C222.222 336.255 221.814 335.909 221.753 335.656C221.695 335.416 221.674 317.437 221.707 295.705L221.766 256.19L222.514 256.083L223.262 255.976L223.324 254.102L223.386 252.228H227.119H230.852V254.156V256.083H231.6H232.348V265.585V275.087L236.838 279.592L241.328 284.096V292.132V300.169L240.603 300.408C240.205 300.54 239.541 300.976 239.129 301.378C236.91 303.536 237.29 307.38 239.891 309.105C240.992 309.835 243.157 310.065 244.321 309.576C248.28 307.914 248.559 302.381 244.773 300.601L243.697 300.095L243.688 291.741L243.679 283.386L239.19 278.892L234.7 274.399V265.255V256.111L235.395 256.043L236.09 255.976L236.151 254.102L236.213 252.228H240.374H244.535V254.156V256.083H245.283H246.031V262.135V268.187L251.376 273.538L256.721 278.889V307.519V336.148L256.055 336.295C255.172 336.489 253.756 337.794 253.271 338.86C252.295 341.008 253.125 343.838 255.09 345.055C256.928 346.193 259.38 346.049 260.9 344.712C261.984 343.757 262.479 342.803 262.628 341.377C262.743 340.277 262.683 339.917 262.219 338.901C261.664 337.688 260.401 336.524 259.353 336.26L258.859 336.136V307.084V278.033L253.514 272.682L248.169 267.33V261.707V256.083H249.024H249.879V254.175V252.266L252.195 252.194C254.323 252.127 254.572 252.075 255.265 251.544C256.606 250.519 256.721 250.016 256.721 245.182V240.877H258.645H260.569V240.128V239.378H285.123H309.676L310.056 240.221C311.388 243.182 314.731 244.082 317.485 242.222C319.104 241.128 319.846 238.92 319.266 236.921C318.469 234.174 315.832 232.79 312.934 233.596C311.819 233.906 310.478 235.152 310.05 236.275L309.683 237.237H285.139H260.595L260.528 236.433L260.462 235.63L258.591 235.568L256.721 235.507V233.48V231.454H258.645H260.569V230.704V229.955H297.289H334.01L339.747 235.705L345.484 241.455L345.143 242.459C344.515 244.313 344.91 246.363 346.153 247.698C347.276 248.903 349.36 249.429 351.052 248.933C354.602 247.892 355.777 244.006 353.461 240.964C352.354 239.51 349.614 238.88 347.763 239.655L346.999 239.975L340.932 233.894L334.865 227.813H297.73H260.595L260.528 227.01L260.462 226.207L258.591 226.145L256.721 226.083V223.53V220.976L258.591 220.915L260.462 220.853L260.528 220.049L260.595 219.246H279.687H298.78L299.143 220.2C299.539 221.238 300.645 222.342 301.755 222.807C302.654 223.183 304.636 223.186 305.526 222.813C307.885 221.822 309.095 219.3 308.38 216.864C307.124 212.583 301.393 211.999 299.336 215.943L298.731 217.104L279.65 217.104L260.569 217.105V216.355V215.605H258.645H256.721V214.106V212.607H258.645H260.569V211.858V211.108H267.367H274.166L274.444 211.879C275.117 213.744 277.622 215.18 279.666 214.873C281.941 214.531 283.872 212.29 283.872 209.992C283.872 206.569 280.656 204.155 277.496 205.206C276.218 205.631 274.84 206.884 274.444 207.982L274.166 208.752H267.381H260.596L260.529 208.056L260.462 207.36L258.591 207.298L256.721 207.236V205.424V203.612H258.645H260.569V202.862V202.113H262.707H264.845V201.042V199.971H262.72H260.595L260.528 199.168L260.462 198.365L258.591 198.303L256.721 198.241V196.322V194.403H258.645H260.569V193.653V192.904H264.426H268.283L270.893 194.324C272.329 195.106 273.984 196.008 274.572 196.329C275.16 196.65 278.533 198.468 282.067 200.369L288.493 203.826H313.117H337.742L338.077 204.629C338.543 205.745 339.379 206.576 340.634 207.171C342.449 208.03 344.346 207.763 345.903 206.427C348.527 204.177 348.022 199.905 344.951 198.372C342.34 197.069 339.185 198.221 338.077 200.881L337.742 201.685H313.453H289.163L281.547 197.589C277.358 195.337 272.806 192.879 271.43 192.128L268.93 190.762H264.762H260.595L260.528 189.959L260.462 189.156L258.591 189.094L256.721 189.032V186.791V184.551H258.645H260.569V183.801V183.052H268.046H275.523L280.179 186.02C282.739 187.653 285.604 189.484 286.545 190.089L288.255 191.19H294.266H300.276L300.639 192.14C301.348 194.001 303.82 195.475 305.722 195.17C308.678 194.697 310.693 191.794 309.959 189.064C308.962 185.355 304.789 184.009 301.976 186.49C301.47 186.936 300.879 187.694 300.663 188.175L300.269 189.049H294.637H289.004L285.102 186.552C282.956 185.18 280.079 183.348 278.708 182.483L276.217 180.91H268.406H260.595L260.528 180.107L260.462 179.304L258.591 179.242L256.721 179.18V176.94V174.699H258.645H260.569V173.95V173.2H279.438H298.306L304.29 167.203L310.273 161.207H323.99H337.706L337.917 161.796C338.899 164.534 341.983 165.95 344.554 164.842C348.984 162.933 348.377 156.49 343.666 155.433C341.457 154.937 338.882 156.277 338.15 158.305C338 158.723 337.823 159.066 337.759 159.067C337.694 159.069 331.268 159.093 323.479 159.121L309.316 159.172L303.381 165.115L297.445 171.058H279.007H260.569V170.202V169.345H258.645H256.721V166.783V164.222L258.591 164.16L260.462 164.098L260.528 163.295L260.595 162.492L270.256 162.487L279.917 162.483L284.834 157.102C287.539 154.142 290.569 150.839 291.569 149.761C292.568 148.683 293.973 147.155 294.69 146.365L295.995 144.93L309.442 144.929L322.89 144.928L324.327 142.091C325.937 138.914 333.408 124.255 335.586 120L337 117.237L338.283 117.201C340.972 117.125 343.299 114.909 343.305 112.417C343.311 110.24 341.556 107.954 339.499 107.46C337.203 106.908 334.966 107.963 333.844 110.127C332.978 111.798 333.396 114.465 334.712 115.657C335.194 116.094 335.976 114.457 325.541 134.864L321.544 142.681L308.289 142.736L295.034 142.791L293.535 144.394C292.71 145.275 289.074 149.226 285.454 153.173L278.872 160.35H269.721H260.569V159.6V158.851H258.645H256.721V152.083C256.721 144.532 256.69 144.348 255.265 143.258C254.572 142.728 254.323 142.675 252.195 142.609L249.879 142.536V140.628V138.719H249.024H248.169V133.095V127.472L253.514 122.121L258.859 116.77V87.718V58.6662L259.353 58.542C260.361 58.2884 261.66 57.1159 262.186 55.9833C263.079 54.0631 262.814 52.221 261.418 50.6319C259.814 48.807 257.199 48.4414 255.09 49.7476C253.125 50.9643 252.295 53.7943 253.271 55.9427C253.756 57.0081 255.172 58.3131 256.055 58.5073L256.721 58.6538V87.2835V115.913L251.376 121.264L246.031 126.615V132.667V138.719H245.283H244.535V140.646V142.574H240.374H236.213L236.151 140.7L236.09 138.826L235.395 138.759L234.7 138.692V129.548V120.404L239.19 115.91L243.679 111.416V103.008C243.679 96.2381 243.734 94.6001 243.958 94.6001C244.112 94.6001 244.68 94.3185 245.222 93.9743C247.914 92.2642 248.239 88.3119 245.859 86.2193C244.693 85.1938 243.787 84.8972 242.173 85.0129C239.614 85.1964 237.898 86.8973 237.731 89.4157C237.58 91.7106 238.78 93.791 240.603 94.3939L241.328 94.6333V102.67V110.706L236.838 115.211L232.348 119.715V129.217V138.719H231.6H230.852V140.646V142.574H227.119H223.386L223.324 140.7L223.262 138.826L222.514 138.719L221.766 138.612L221.707 99.0977C221.674 77.3649 221.695 59.3867 221.753 59.146C221.814 58.8935 222.222 58.5476 222.719 58.3281C224.556 57.5162 225.604 55.8602 225.591 53.7881C225.582 52.1285 224.924 50.8859 223.522 49.88C221.717 48.5842 219.079 48.6838 217.459 50.1089C215.942 51.4434 215.363 53.505 215.981 55.3695C216.41 56.6653 217.667 58.04 218.749 58.3977L219.521 58.653V98.686V138.719H218.772H218.024V140.646V142.574H214.612H211.2L211.138 140.7L211.076 138.826L210.328 138.719L209.579 138.612L209.533 123.681L209.486 108.749L210.388 108.345C212.606 107.352 213.981 104.652 213.314 102.6C212.834 101.127 211.918 100.032 210.642 99.4063C209.622 98.9064 209.272 98.8411 208.115 98.934C206.093 99.0966 204.771 100.029 203.93 101.886C202.848 104.277 203.95 107.117 206.398 108.239L207.538 108.762L207.546 123.74L207.553 138.719H206.696H205.838V140.646V142.574H201.776H197.714V140.646V138.719H196.966H196.217V123.728V108.737L197.148 108.299C198.261 107.775 199.006 107.024 199.647 105.778C200.322 104.467 200.159 102.418 199.281 101.166C197.438 98.5404 193.914 98.1014 191.732 100.226C189.194 102.695 189.936 106.879 193.171 108.344L194.079 108.755V123.737V138.719H193.331H192.583V140.308C192.583 141.181 192.525 142.049 192.453 142.235C192.342 142.524 191.827 142.574 188.926 142.574H185.528V140.646V138.719H184.779H184.031V98.7124V58.7059L184.779 58.4347C185.903 58.0278 186.813 57.1561 187.373 55.9514C188.226 54.1162 187.959 52.2234 186.628 50.6649C185.665 49.5377 184.471 48.9929 182.951 48.9869C179.236 48.9721 176.837 52.7757 178.486 56.0643C178.992 57.0732 180.396 58.3244 181.228 58.5073L181.893 58.6538V98.6734V138.693L181.092 138.76L180.29 138.826L180.228 140.7L180.166 142.574H176.433H172.7V140.646V138.719H171.952H171.204V129.18V119.642L166.714 115.115L162.224 110.588L162.233 102.648L162.242 94.7072L163.303 94.2084C164.53 93.6323 165.492 92.3961 165.898 90.8747C166.379 89.0714 165.419 86.8125 163.681 85.6605C162.893 85.1377 162.591 85.0696 161.064 85.0705C159.544 85.0713 159.23 85.1416 158.432 85.6607C157.933 85.985 157.26 86.6521 156.935 87.1434C156.404 87.9474 156.345 88.2237 156.345 89.9053C156.345 91.6583 156.386 91.8313 157.015 92.7052C157.434 93.2871 158.091 93.8373 158.766 94.1718L159.848 94.7072L159.86 103.062L159.873 111.416L164.469 116.017L169.066 120.618V129.655V138.693L168.264 138.76L167.462 138.826L167.4 140.7L167.339 142.574H163.178H159.017V140.646V138.719H158.269H157.521V132.62V126.52L152.283 121.223L147.045 115.926V87.2893V58.653L147.74 58.4146C148.589 58.1233 149.368 57.4714 150.055 56.4781C150.505 55.8259 150.573 55.4873 150.573 53.8738C150.573 52.1611 150.523 51.948 149.93 51.0896C148.708 49.3223 145.834 48.4532 143.945 49.2796ZM147.515 50.8281C149.153 51.6663 149.838 53.9348 148.925 55.4942C148.201 56.7293 147.464 57.1859 146.032 57.2863C145.004 57.3583 144.68 57.29 144.072 56.8719C142.408 55.7281 141.926 54.0466 142.765 52.3106C143.628 50.5246 145.674 49.886 147.515 50.8281ZM184.907 51.0382C186.65 52.2326 186.955 54.4381 185.601 56.0508C184.858 56.9355 184.024 57.3347 182.919 57.3343C179.881 57.3332 178.319 53.8014 180.354 51.5348C181.535 50.2194 183.413 50.0145 184.907 51.0382ZM222.327 50.8167C223.664 51.5094 224.464 53.3334 224.044 54.7358C223.533 56.4466 222.329 57.3348 220.521 57.3348C218.023 57.3348 216.37 54.4265 217.611 52.2146C218.251 51.0735 219.908 50.1807 221.01 50.3824C221.417 50.4571 222.01 50.6525 222.327 50.8167ZM259.667 50.9493C262.426 52.6479 261.113 57.3348 257.879 57.3348C256.71 57.3348 256.125 57.1071 255.293 56.3279C252.272 53.5016 256.123 48.7669 259.667 50.9493ZM162.68 86.8012C165.162 88.0712 165.137 91.7063 162.637 93.0016C162.304 93.174 161.589 93.3151 161.048 93.3151C158.003 93.3151 156.408 89.825 158.442 87.6135C159.616 86.3379 161.186 86.0368 162.68 86.8012ZM244.484 86.9671C244.868 87.2192 245.385 87.8416 245.633 88.3503C246.778 90.7012 245.131 93.3151 242.503 93.3151C241.092 93.3151 240.115 92.6994 239.457 91.394C238.87 90.2298 238.85 89.4753 239.381 88.4342C240.414 86.4058 242.65 85.7631 244.484 86.9671ZM197.093 100.908C198.561 101.877 199.04 104.118 198.083 105.539C197.031 107.104 195.27 107.651 193.574 106.941C192.141 106.341 191.25 104.465 191.694 102.982C192.437 100.497 194.986 99.5183 197.093 100.908ZM209.802 100.571C212.652 101.868 212.755 105.778 209.97 106.944C206.321 108.472 203.295 104.005 206.111 101.247C207.211 100.169 208.429 99.9462 209.802 100.571ZM340.291 109.362C342.195 110.72 342.268 113.56 340.438 115.042C339.732 115.614 339.467 115.695 338.312 115.692C336.709 115.688 335.765 115.118 335.162 113.789C334.635 112.626 334.654 111.811 335.236 110.655C336.152 108.834 338.655 108.194 340.291 109.362ZM253.728 145.572C254.153 145.998 254.155 146.286 254.155 197.401C254.155 248.516 254.153 248.804 253.728 249.23C253.302 249.656 253.015 249.658 201.99 249.658C150.965 249.658 150.677 249.656 150.252 249.23C149.827 248.804 149.824 248.516 149.824 197.401C149.824 146.286 149.827 145.998 150.252 145.572C150.677 145.146 150.965 145.144 201.99 145.144C253.015 145.144 253.302 145.146 253.728 145.572ZM56.1325 151.499C57.9989 152.895 58.28 155.123 56.8021 156.809C55.2301 158.603 52.2628 158.205 51.1513 156.052C50.7543 155.283 50.7479 153.649 51.1387 152.897C51.5144 152.174 52.2787 151.449 52.9765 151.155C53.7594 150.826 55.483 151.013 56.1325 151.499ZM344.018 157.001C344.402 157.162 344.974 157.6 345.289 157.975C346.619 159.559 346.518 161.429 345.028 162.778C343.677 164 341.825 164.088 340.526 162.993C339.63 162.238 339.245 161.411 339.245 160.243C339.245 157.681 341.684 156.024 344.018 157.001ZM91.45 157.559C92.2416 158.124 92.9437 159.489 92.9508 160.477C92.9534 160.841 92.734 161.559 92.4631 162.072C91.9049 163.129 90.5424 163.991 89.4279 163.991C89.0534 163.991 88.328 163.769 87.8159 163.498C86.7457 162.931 85.9003 161.57 85.9003 160.415C85.9003 159.095 86.9475 157.604 88.2521 157.066C88.9443 156.781 90.7487 157.059 91.45 157.559ZM101.571 177.13C102.507 177.522 103.593 178.807 103.765 179.728C104.448 183.375 99.7945 185.481 97.5538 182.538C95.462 179.79 98.4185 175.811 101.571 177.13ZM126.527 185.675C127.83 186.335 128.445 187.313 128.445 188.727C128.445 191.431 125.644 193.119 123.324 191.813C120.806 190.395 120.976 186.801 123.618 185.6C124.766 185.078 125.378 185.094 126.527 185.675ZM307.118 187.26C308.059 187.963 308.513 188.748 308.619 189.851C308.925 193.041 305.384 194.877 302.951 192.791C301.028 191.142 301.355 188.178 303.586 187.038C304.511 186.565 306.343 186.68 307.118 187.26ZM63.1896 193.016C65.0483 194.116 65.2567 197.31 63.5571 198.65C61.0803 200.601 57.3227 198.535 57.8091 195.489C58.2236 192.892 60.9009 191.662 63.1896 193.016ZM344.41 199.674C345.679 200.317 346.49 202.139 346.114 203.502C345.457 205.887 342.969 206.903 340.841 205.654C339.792 205.038 339.245 204.044 339.245 202.755C339.245 200.018 341.929 198.417 344.41 199.674ZM100.439 205.436C101.642 206.052 102.475 207.665 102.257 208.958C101.943 210.819 100.633 211.962 98.813 211.964C96.9455 211.965 95.5394 210.668 95.3581 208.778C95.0947 206.033 97.9426 204.16 100.439 205.436ZM280.06 206.617C281.67 207.065 282.804 209.133 282.348 210.789C281.679 213.214 278.67 214.243 276.816 212.68C275.92 211.925 275.534 211.098 275.534 209.93C275.534 207.436 277.592 205.93 280.06 206.617ZM305.247 215.124C307.315 216.165 307.743 219.002 306.088 220.698C304.778 222.04 302.796 222.087 301.383 220.809C298.35 218.063 301.597 213.287 305.247 215.124ZM316.583 235.494C318.205 236.784 318.517 238.803 317.335 240.356C315.098 243.294 310.436 241.192 311.118 237.553C311.297 236.598 312.555 235.164 313.454 234.89C314.471 234.581 315.743 234.826 316.583 235.494ZM63.3365 235.609C64.319 236.36 64.7349 237.194 64.7349 238.414C64.7349 242.419 59.4236 243.248 57.9824 239.468C57.5433 238.316 57.7725 237.24 58.6903 236.147C59.8687 234.744 61.897 234.509 63.3365 235.609ZM351.223 241.145C352.527 241.805 353.141 242.783 353.141 244.197C353.141 247.451 349.335 248.923 347.121 246.526C345.519 244.79 346.113 242.071 348.314 241.069C349.462 240.547 350.074 240.563 351.223 241.145ZM67.6899 283.54C68.5282 284.059 69.2145 285.388 69.2164 286.495C69.2177 287.401 68.4839 288.754 67.6589 289.367C67.195 289.711 66.7409 289.815 65.6969 289.815C64.1162 289.815 63.4158 289.416 62.6538 288.082C60.8299 284.886 64.5074 281.569 67.6899 283.54ZM196.875 288.053C199.662 289.934 198.853 293.933 195.566 294.528C193.302 294.937 191.031 292.38 191.694 290.165C192.207 288.449 193.36 287.59 195.17 287.575C195.85 287.569 196.377 287.717 196.875 288.053ZM209.986 287.865C211.499 288.498 212.371 290.51 211.836 292.135C211.526 293.076 210.392 294.105 209.307 294.43C207.043 295.11 204.719 292.967 205.049 290.505C205.352 288.244 207.784 286.943 209.986 287.865ZM162.637 301.801C164.75 302.896 165.198 305.626 163.538 307.289C162.025 308.805 160.073 308.806 158.562 307.292C156.383 305.11 157.907 301.49 161.006 301.488C161.57 301.488 162.304 301.628 162.637 301.801ZM244.323 301.969C245.944 303.075 246.445 304.795 245.627 306.452C244.547 308.637 242.022 309.1 240.152 307.455C238.45 305.959 238.75 303.129 240.738 301.914C241.723 301.312 243.397 301.338 244.323 301.969ZM147.85 338.037C150.629 340.102 149.207 344.426 145.762 344.383C143.718 344.358 142.168 342.583 142.399 340.534C142.524 339.425 143.02 338.654 144.072 337.93C144.68 337.512 145.004 337.444 146.032 337.516C146.827 337.572 147.472 337.757 147.85 338.037ZM184.444 337.781C185.263 338.205 186.109 339.251 186.355 340.141C187.014 342.532 184.508 344.969 182.066 344.31C179.035 343.492 178.511 339.251 181.267 337.843C182.161 337.386 183.627 337.358 184.444 337.781ZM222.677 338.029C223.371 338.536 224.224 340.116 224.224 340.894C224.224 341.741 223.341 343.301 222.572 343.812C221.411 344.585 220.491 344.642 219.22 344.019C216.61 342.74 216.437 339.602 218.885 337.936C219.506 337.513 219.829 337.444 220.86 337.516C221.641 337.571 222.306 337.759 222.677 338.029ZM259.502 337.949C260.557 338.669 261.045 339.457 261.157 340.626C261.47 343.889 257.627 345.7 255.312 343.381C254.361 342.429 254.005 341.169 254.356 339.997C254.625 339.097 255.589 337.998 256.396 337.67C257.272 337.314 258.767 337.449 259.502 337.949Z" fill="url(#paint0_linear_42_2737)" style="mix-blend-mode:difference"/>
<path fill-rule="evenodd" clip-rule="evenodd" d="M143.945 49.2796C140.761 50.673 139.921 54.8099 142.318 57.2853C142.778 57.7599 143.501 58.2739 143.924 58.4272L144.693 58.7059V87.7377V116.77L150.038 122.121L155.383 127.472V133.082V138.693L154.581 138.76L153.78 138.826L153.718 140.68L153.657 142.534L151.563 142.608C149.678 142.674 149.394 142.739 148.715 143.258C147.303 144.338 147.259 144.588 147.259 151.548V157.78H145.335H143.411V158.53V159.279H118.865H94.3206L93.9464 158.43C93.7408 157.963 93.1415 157.201 92.6145 156.736C90.4804 154.854 87.5348 155.122 85.6122 157.372C83.2006 160.194 84.9408 164.674 88.725 165.385C90.6359 165.745 93.2176 164.25 93.934 162.371L94.2964 161.421H118.853H143.411V162.277V163.134H145.335H147.259V165.169V167.203H145.335H143.411V167.953V168.703H106.69H69.9698L64.2209 162.941L58.472 157.179L58.8241 156.297C59.3229 155.048 59.2669 153.593 58.6702 152.31C58.0331 150.939 57.1142 150.166 55.5978 149.725C52.4679 148.813 49.3418 151.154 49.3418 154.41C49.3418 156.424 50.2694 158.001 51.9877 158.906C53.0971 159.49 55.3205 159.548 56.3057 159.018L56.9624 158.665L63.0386 164.755L69.1148 170.844H106.263H143.411V171.594V172.343H145.335H147.259V175.012V177.681L145.388 177.743L143.517 177.805L143.451 178.608L143.385 179.411H124.284H105.184L104.948 178.734C104.091 176.271 100.975 174.878 98.5723 175.884C95.3416 177.236 94.3685 180.829 96.4814 183.604C97.2299 184.587 98.9815 185.408 100.331 185.408C102.347 185.408 104.435 183.905 105.02 182.035L105.171 181.553H124.29H143.411V182.302V183.052H145.335H147.259V184.543V186.033L145.388 186.095L143.517 186.157L143.451 186.96L143.385 187.764H136.697H130.009L129.383 186.537C128.675 185.15 127.595 184.294 126.019 183.872C124.142 183.369 121.888 184.373 120.829 186.183C118.984 189.336 120.851 193.187 124.464 193.683C126.41 193.95 128.708 192.652 129.438 190.873L129.835 189.907L136.623 189.906L143.411 189.905V190.655V191.404H145.335H147.259V193.225V195.045H145.335H143.411V195.795V196.544H141.273H139.135V197.615V198.686H141.26H143.385L143.451 199.489L143.517 200.292L145.388 200.354L147.259 200.416V202.335V204.255H145.335H143.411V205.004V205.754H139.545H135.68L128.268 201.765C124.191 199.572 119.646 197.114 118.169 196.304L115.482 194.831H90.7498C68.7644 194.831 66.0176 194.795 66.0176 194.506C66.0176 194.108 65.1535 192.716 64.5985 192.219C63.8838 191.58 62.3051 190.986 61.3142 190.983C60.1631 190.98 58.4554 191.735 57.6376 192.609C55.9211 194.443 55.9999 197.612 57.8067 199.404C60.434 202.009 64.6943 201.051 66.0003 197.562L66.2207 196.973H90.5268H114.833L116.455 197.867C117.346 198.358 119.808 199.693 121.924 200.832C124.041 201.972 127.853 204.028 130.396 205.4L135.02 207.895H139.215H143.411V208.752V209.609H145.335H147.259V211.849V214.09L145.388 214.152L143.517 214.213L143.451 214.909L143.383 215.605H135.885H128.387L125.155 213.53C123.378 212.389 120.51 210.558 118.78 209.461L115.636 207.467H109.661H103.687L103.451 206.79C102.347 203.618 97.8845 202.538 95.4479 204.855C94.4104 205.842 93.9481 206.982 93.9419 208.57C93.9372 209.782 94.0313 210.148 94.5741 211.027C96.6193 214.341 101.458 214.19 103.134 210.759L103.695 209.609H109.326H114.957L120.904 213.43C124.175 215.532 127.059 217.363 127.313 217.499C127.639 217.674 130.083 217.747 135.593 217.747H143.411V218.604V219.461H145.335H147.259V221.701V223.941L145.388 224.003L143.517 224.065L143.451 224.761L143.383 225.457H124.528H105.673L99.7969 231.347L93.9206 237.237L80.0225 237.231L66.1245 237.226L65.67 236.189C65.345 235.448 64.9183 234.945 64.1734 234.427C63.1851 233.74 63.0361 233.703 61.2791 233.703C59.5684 233.703 59.3561 233.752 58.4998 234.347C56.5477 235.702 55.8762 238.356 56.9178 240.597C58.59 244.195 64.0963 244.229 65.6647 240.652L66.1245 239.602L80.3402 239.598L94.5562 239.592L100.443 233.698L106.33 227.804L124.817 227.802L143.304 227.801L143.37 228.557L143.436 229.312H145.348H147.259V231.874V234.436L145.388 234.498L143.517 234.559L143.451 235.358C143.402 235.953 143.293 236.149 143.024 236.127C142.825 236.111 138.477 236.117 133.362 236.141L124.062 236.184L117.969 242.839C114.618 246.499 111.01 250.446 109.952 251.609L108.028 253.725L94.5589 253.727L81.09 253.729L79.3797 257.104C73.209 269.28 67.5961 280.269 67.2777 280.797C66.9393 281.359 66.7856 281.421 65.6589 281.454C64.2694 281.495 63.2796 281.919 62.2046 282.932C61.2808 283.803 60.9422 284.473 60.7703 285.771C60.5486 287.447 60.9599 288.57 62.2602 289.839C63.9609 291.499 65.9103 291.823 67.9317 290.78C70.7209 289.343 71.4614 285.788 69.489 283.307L68.8741 282.533L72.4859 275.466C74.4723 271.579 77.5244 265.603 79.2679 262.187L82.4382 255.976L95.7675 255.906L109.097 255.836L111.858 252.801C113.376 251.131 116.98 247.187 119.866 244.036L125.114 238.307H134.262H143.411V239.057V239.807H145.335H147.259V244.647C147.259 250.07 147.35 250.5 148.715 251.544C149.394 252.064 149.678 252.129 151.563 252.195L153.657 252.268L153.718 254.122L153.78 255.976L154.581 256.043L155.383 256.109V261.72V267.33L150.038 272.682L144.693 278.033V307.065V336.096L143.924 336.375C142.289 336.967 140.842 339.186 140.847 341.093C140.852 342.77 142.307 344.824 143.992 345.531C145.909 346.336 148.709 345.479 149.93 343.713C150.523 342.854 150.573 342.641 150.573 340.929C150.573 339.315 150.505 338.976 150.055 338.324C149.368 337.331 148.589 336.679 147.74 336.388L147.045 336.149V307.513V278.877L152.283 273.58L157.521 268.282V262.183V256.083H158.269H159.017V254.156V252.228H163.178H167.339L167.4 254.102L167.462 255.976L168.264 256.043L169.066 256.109V265.147V274.184L164.469 278.785L159.873 283.386L159.86 291.741L159.848 300.095L158.766 300.631C158.091 300.965 157.434 301.515 157.015 302.097C156.386 302.971 156.345 303.144 156.345 304.897C156.345 306.579 156.404 306.855 156.935 307.659C157.26 308.15 157.933 308.817 158.432 309.142C159.23 309.661 159.544 309.731 161.064 309.732C162.591 309.733 162.893 309.665 163.681 309.142C166.847 307.043 166.631 302.158 163.303 300.594L162.242 300.095L162.233 292.155L162.224 284.215L166.714 279.687L171.204 275.16V265.622V256.083H171.952H172.7V254.156V252.228H176.433H180.166L180.228 254.102L180.29 255.976L181.092 256.043L181.893 256.109V296.129V336.148L181.228 336.295C180.396 336.478 178.995 337.726 178.475 338.748C177.267 341.12 178.115 343.83 180.493 345.196C182.533 346.368 185.101 345.925 186.628 344.137C187.959 342.579 188.226 340.686 187.373 338.851C186.813 337.646 185.903 336.775 184.779 336.368L184.031 336.096V296.09V256.083H184.779H185.528V254.156V252.228H188.926C191.827 252.228 192.342 252.278 192.453 252.567C192.525 252.754 192.583 253.621 192.583 254.495V256.083H193.331H194.079V271.072V286.061L193.278 286.396C191.624 287.086 190.017 289.405 190.017 291.102C190.017 291.875 190.935 293.796 191.643 294.504C193.566 296.428 196.61 296.406 198.549 294.455C201.05 291.94 200.358 288.015 197.148 286.503L196.217 286.065V271.074V256.083H196.966H197.714V254.156V252.228H201.776H205.838V254.156V256.083H206.693H207.548V271.06V286.036L206.403 286.561C203.95 287.686 202.846 290.523 203.93 292.917C204.771 294.773 206.093 295.706 208.115 295.868C209.272 295.961 209.622 295.896 210.642 295.396C214.431 293.539 214.28 288.2 210.388 286.457L209.486 286.053L209.533 271.122L209.579 256.19L210.328 256.083L211.076 255.976L211.138 254.102L211.2 252.228H214.612H218.024V254.156V256.083H218.772H219.521V296.081V336.078L218.468 336.562C215.327 338.005 214.788 342.344 217.459 344.693C218.479 345.591 219.528 345.895 221.148 345.765C226.158 345.362 227.317 338.507 222.719 336.474C222.222 336.255 221.814 335.909 221.753 335.656C221.695 335.416 221.674 317.437 221.707 295.705L221.766 256.19L222.514 256.083L223.262 255.976L223.324 254.102L223.386 252.228H227.119H230.852V254.156V256.083H231.6H232.348V265.585V275.087L236.838 279.592L241.328 284.096V292.132V300.169L240.603 300.408C240.205 300.54 239.541 300.976 239.129 301.378C236.91 303.536 237.29 307.38 239.891 309.105C240.992 309.835 243.157 310.065 244.321 309.576C248.28 307.914 248.559 302.381 244.773 300.601L243.697 300.095L243.688 291.741L243.679 283.386L239.19 278.892L234.7 274.399V265.255V256.111L235.395 256.043L236.09 255.976L236.151 254.102L236.213 252.228H240.374H244.535V254.156V256.083H245.283H246.031V262.135V268.187L251.376 273.538L256.721 278.889V307.519V336.148L256.055 336.295C255.172 336.489 253.756 337.794 253.271 338.86C252.295 341.008 253.125 343.838 255.09 345.055C256.928 346.193 259.38 346.049 260.9 344.712C261.984 343.757 262.479 342.803 262.628 341.377C262.743 340.277 262.683 339.917 262.219 338.901C261.664 337.688 260.401 336.524 259.353 336.26L258.859 336.136V307.084V278.033L253.514 272.682L248.169 267.33V261.707V256.083H249.024H249.879V254.175V252.266L252.195 252.194C254.323 252.127 254.572 252.075 255.265 251.544C256.606 250.519 256.721 250.016 256.721 245.182V240.877H258.645H260.569V240.128V239.378H285.123H309.676L310.056 240.221C311.388 243.182 314.731 244.082 317.485 242.222C319.104 241.128 319.846 238.92 319.266 236.921C318.469 234.174 315.832 232.79 312.934 233.596C311.819 233.906 310.478 235.152 310.05 236.275L309.683 237.237H285.139H260.595L260.528 236.433L260.462 235.63L258.591 235.568L256.721 235.507V233.48V231.454H258.645H260.569V230.704V229.955H297.289H334.01L339.747 235.705L345.484 241.455L345.143 242.459C344.515 244.313 344.91 246.363 346.153 247.698C347.276 248.903 349.36 249.429 351.052 248.933C354.602 247.892 355.777 244.006 353.461 240.964C352.354 239.51 349.614 238.88 347.763 239.655L346.999 239.975L340.932 233.894L334.865 227.813H297.73H260.595L260.528 227.01L260.462 226.207L258.591 226.145L256.721 226.083V223.53V220.976L258.591 220.915L260.462 220.853L260.528 220.049L260.595 219.246H279.687H298.78L299.143 220.2C299.539 221.238 300.645 222.342 301.755 222.807C302.654 223.183 304.636 223.186 305.526 222.813C307.885 221.822 309.095 219.3 308.38 216.864C307.124 212.583 301.393 211.999 299.336 215.943L298.731 217.104L279.65 217.104L260.569 217.105V216.355V215.605H258.645H256.721V214.106V212.607H258.645H260.569V211.858V211.108H267.367H274.166L274.444 211.879C275.117 213.744 277.622 215.18 279.666 214.873C281.941 214.531 283.872 212.29 283.872 209.992C283.872 206.569 280.656 204.155 277.496 205.206C276.218 205.631 274.84 206.884 274.444 207.982L274.166 208.752H267.381H260.596L260.529 208.056L260.462 207.36L258.591 207.298L256.721 207.236V205.424V203.612H258.645H260.569V202.862V202.113H262.707H264.845V201.042V199.971H262.72H260.595L260.528 199.168L260.462 198.365L258.591 198.303L256.721 198.241V196.322V194.403H258.645H260.569V193.653V192.904H264.426H268.283L270.893 194.324C272.329 195.106 273.984 196.008 274.572 196.329C275.16 196.65 278.533 198.468 282.067 200.369L288.493 203.826H313.117H337.742L338.077 204.629C338.543 205.745 339.379 206.576 340.634 207.171C342.449 208.03 344.346 207.763 345.903 206.427C348.527 204.177 348.022 199.905 344.951 198.372C342.34 197.069 339.185 198.221 338.077 200.881L337.742 201.685H313.453H289.163L281.547 197.589C277.358 195.337 272.806 192.879 271.43 192.128L268.93 190.762H264.762H260.595L260.528 189.959L260.462 189.156L258.591 189.094L256.721 189.032V186.791V184.551H258.645H260.569V183.801V183.052H268.046H275.523L280.179 186.02C282.739 187.653 285.604 189.484 286.545 190.089L288.255 191.19H294.266H300.276L300.639 192.14C301.348 194.001 303.82 195.475 305.722 195.17C308.678 194.697 310.693 191.794 309.959 189.064C308.962 185.355 304.789 184.009 301.976 186.49C301.47 186.936 300.879 187.694 300.663 188.175L300.269 189.049H294.637H289.004L285.102 186.552C282.956 185.18 280.079 183.348 278.708 182.483L276.217 180.91H268.406H260.595L260.528 180.107L260.462 179.304L258.591 179.242L256.721 179.18V176.94V174.699H258.645H260.569V173.95V173.2H279.438H298.306L304.29 167.203L310.273 161.207H323.99H337.706L337.917 161.796C338.899 164.534 341.983 165.95 344.554 164.842C348.984 162.933 348.377 156.49 343.666 155.433C341.457 154.937 338.882 156.277 338.15 158.305C338 158.723 337.823 159.066 337.759 159.067C337.694 159.069 331.268 159.093 323.479 159.121L309.316 159.172L303.381 165.115L297.445 171.058H279.007H260.569V170.202V169.345H258.645H256.721V166.783V164.222L258.591 164.16L260.462 164.098L260.528 163.295L260.595 162.492L270.256 162.487L279.917 162.483L284.834 157.102C287.539 154.142 290.569 150.839 291.569 149.761C292.568 148.683 293.973 147.155 294.69 146.365L295.995 144.93L309.442 144.929L322.89 144.928L324.327 142.091C325.937 138.914 333.408 124.255 335.586 120L337 117.237L338.283 117.201C340.972 117.125 343.299 114.909 343.305 112.417C343.311 110.24 341.556 107.954 339.499 107.46C337.203 106.908 334.966 107.963 333.844 110.127C332.978 111.798 333.396 114.465 334.712 115.657C335.194 116.094 335.976 114.457 325.541 134.864L321.544 142.681L308.289 142.736L295.034 142.791L293.535 144.394C292.71 145.275 289.074 149.226 285.454 153.173L278.872 160.35H269.721H260.569V159.6V158.851H258.645H256.721V152.083C256.721 144.532 256.69 144.348 255.265 143.258C254.572 142.728 254.323 142.675 252.195 142.609L249.879 142.536V140.628V138.719H249.024H248.169V133.095V127.472L253.514 122.121L258.859 116.77V87.718V58.6662L259.353 58.542C260.361 58.2884 261.66 57.1159 262.186 55.9833C263.079 54.0631 262.814 52.221 261.418 50.6319C259.814 48.807 257.199 48.4414 255.09 49.7476C253.125 50.9643 252.295 53.7943 253.271 55.9427C253.756 57.0081 255.172 58.3131 256.055 58.5073L256.721 58.6538V87.2835V115.913L251.376 121.264L246.031 126.615V132.667V138.719H245.283H244.535V140.646V142.574H240.374H236.213L236.151 140.7L236.09 138.826L235.395 138.759L234.7 138.692V129.548V120.404L239.19 115.91L243.679 111.416V103.008C243.679 96.2381 243.734 94.6001 243.958 94.6001C244.112 94.6001 244.68 94.3185 245.222 93.9743C247.914 92.2642 248.239 88.3119 245.859 86.2193C244.693 85.1938 243.787 84.8972 242.173 85.0129C239.614 85.1964 237.898 86.8973 237.731 89.4157C237.58 91.7106 238.78 93.791 240.603 94.3939L241.328 94.6333V102.67V110.706L236.838 115.211L232.348 119.715V129.217V138.719H231.6H230.852V140.646V142.574H227.119H223.386L223.324 140.7L223.262 138.826L222.514 138.719L221.766 138.612L221.707 99.0977C221.674 77.3649 221.695 59.3867 221.753 59.146C221.814 58.8935 222.222 58.5476 222.719 58.3281C224.556 57.5162 225.604 55.8602 225.591 53.7881C225.582 52.1285 224.924 50.8859 223.522 49.88C221.717 48.5842 219.079 48.6838 217.459 50.1089C215.942 51.4434 215.363 53.505 215.981 55.3695C216.41 56.6653 217.667 58.04 218.749 58.3977L219.521 58.653V98.686V138.719H218.772H218.024V140.646V142.574H214.612H211.2L211.138 140.7L211.076 138.826L210.328 138.719L209.579 138.612L209.533 123.681L209.486 108.749L210.388 108.345C212.606 107.352 213.981 104.652 213.314 102.6C212.834 101.127 211.918 100.032 210.642 99.4063C209.622 98.9064 209.272 98.8411 208.115 98.934C206.093 99.0966 204.771 100.029 203.93 101.886C202.848 104.277 203.95 107.117 206.398 108.239L207.538 108.762L207.546 123.74L207.553 138.719H206.696H205.838V140.646V142.574H201.776H197.714V140.646V138.719H196.966H196.217V123.728V108.737L197.148 108.299C198.261 107.775 199.006 107.024 199.647 105.778C200.322 104.467 200.159 102.418 199.281 101.166C197.438 98.5404 193.914 98.1014 191.732 100.226C189.194 102.695 189.936 106.879 193.171 108.344L194.079 108.755V123.737V138.719H193.331H192.583V140.308C192.583 141.181 192.525 142.049 192.453 142.235C192.342 142.524 191.827 142.574 188.926 142.574H185.528V140.646V138.719H184.779H184.031V98.7124V58.7059L184.779 58.4347C185.903 58.0278 186.813 57.1561 187.373 55.9514C188.226 54.1162 187.959 52.2234 186.628 50.6649C185.665 49.5377 184.471 48.9929 182.951 48.9869C179.236 48.9721 176.837 52.7757 178.486 56.0643C178.992 57.0732 180.396 58.3244 181.228 58.5073L181.893 58.6538V98.6734V138.693L181.092 138.76L180.29 138.826L180.228 140.7L180.166 142.574H176.433H172.7V140.646V138.719H171.952H171.204V129.18V119.642L166.714 115.115L162.224 110.588L162.233 102.648L162.242 94.7072L163.303 94.2084C164.53 93.6323 165.492 92.3961 165.898 90.8747C166.379 89.0714 165.419 86.8125 163.681 85.6605C162.893 85.1377 162.591 85.0696 161.064 85.0705C159.544 85.0713 159.23 85.1416 158.432 85.6607C157.933 85.985 157.26 86.6521 156.935 87.1434C156.404 87.9474 156.345 88.2237 156.345 89.9053C156.345 91.6583 156.386 91.8313 157.015 92.7052C157.434 93.2871 158.091 93.8373 158.766 94.1718L159.848 94.7072L159.86 103.062L159.873 111.416L164.469 116.017L169.066 120.618V129.655V138.693L168.264 138.76L167.462 138.826L167.4 140.7L167.339 142.574H163.178H159.017V140.646V138.719H158.269H157.521V132.62V126.52L152.283 121.223L147.045 115.926V87.2893V58.653L147.74 58.4146C148.589 58.1233 149.368 57.4714 150.055 56.4781C150.505 55.8259 150.573 55.4873 150.573 53.8738C150.573 52.1611 150.523 51.948 149.93 51.0896C148.708 49.3223 145.834 48.4532 143.945 49.2796ZM147.515 50.8281C149.153 51.6663 149.838 53.9348 148.925 55.4942C148.201 56.7293 147.464 57.1859 146.032 57.2863C145.004 57.3583 144.68 57.29 144.072 56.8719C142.408 55.7281 141.926 54.0466 142.765 52.3106C143.628 50.5246 145.674 49.886 147.515 50.8281ZM184.907 51.0382C186.65 52.2326 186.955 54.4381 185.601 56.0508C184.858 56.9355 184.024 57.3347 182.919 57.3343C179.881 57.3332 178.319 53.8014 180.354 51.5348C181.535 50.2194 183.413 50.0145 184.907 51.0382ZM222.327 50.8167C223.664 51.5094 224.464 53.3334 224.044 54.7358C223.533 56.4466 222.329 57.3348 220.521 57.3348C218.023 57.3348 216.37 54.4265 217.611 52.2146C218.251 51.0735 219.908 50.1807 221.01 50.3824C221.417 50.4571 222.01 50.6525 222.327 50.8167ZM259.667 50.9493C262.426 52.6479 261.113 57.3348 257.879 57.3348C256.71 57.3348 256.125 57.1071 255.293 56.3279C252.272 53.5016 256.123 48.7669 259.667 50.9493ZM162.68 86.8012C165.162 88.0712 165.137 91.7063 162.637 93.0016C162.304 93.174 161.589 93.3151 161.048 93.3151C158.003 93.3151 156.408 89.825 158.442 87.6135C159.616 86.3379 161.186 86.0368 162.68 86.8012ZM244.484 86.9671C244.868 87.2192 245.385 87.8416 245.633 88.3503C246.778 90.7012 245.131 93.3151 242.503 93.3151C241.092 93.3151 240.115 92.6994 239.457 91.394C238.87 90.2298 238.85 89.4753 239.381 88.4342C240.414 86.4058 242.65 85.7631 244.484 86.9671ZM197.093 100.908C198.561 101.877 199.04 104.118 198.083 105.539C197.031 107.104 195.27 107.651 193.574 106.941C192.141 106.341 191.25 104.465 191.694 102.982C192.437 100.497 194.986 99.5183 197.093 100.908ZM209.802 100.571C212.652 101.868 212.755 105.778 209.97 106.944C206.321 108.472 203.295 104.005 206.111 101.247C207.211 100.169 208.429 99.9462 209.802 100.571ZM340.291 109.362C342.195 110.72 342.268 113.56 340.438 115.042C339.732 115.614 339.467 115.695 338.312 115.692C336.709 115.688 335.765 115.118 335.162 113.789C334.635 112.626 334.654 111.811 335.236 110.655C336.152 108.834 338.655 108.194 340.291 109.362ZM253.728 145.572C254.153 145.998 254.155 146.286 254.155 197.401C254.155 248.516 254.153 248.804 253.728 249.23C253.302 249.656 253.015 249.658 201.99 249.658C150.965 249.658 150.677 249.656 150.252 249.23C149.827 248.804 149.824 248.516 149.824 197.401C149.824 146.286 149.827 145.998 150.252 145.572C150.677 145.146 150.965 145.144 201.99 145.144C253.015 145.144 253.302 145.146 253.728 145.572ZM56.1325 151.499C57.9989 152.895 58.28 155.123 56.8021 156.809C55.2301 158.603 52.2628 158.205 51.1513 156.052C50.7543 155.283 50.7479 153.649 51.1387 152.897C51.5144 152.174 52.2787 151.449 52.9765 151.155C53.7594 150.826 55.483 151.013 56.1325 151.499ZM344.018 157.001C344.402 157.162 344.974 157.6 345.289 157.975C346.619 159.559 346.518 161.429 345.028 162.778C343.677 164 341.825 164.088 340.526 162.993C339.63 162.238 339.245 161.411 339.245 160.243C339.245 157.681 341.684 156.024 344.018 157.001ZM91.45 157.559C92.2416 158.124 92.9437 159.489 92.9508 160.477C92.9534 160.841 92.734 161.559 92.4631 162.072C91.9049 163.129 90.5424 163.991 89.4279 163.991C89.0534 163.991 88.328 163.769 87.8159 163.498C86.7457 162.931 85.9003 161.57 85.9003 160.415C85.9003 159.095 86.9475 157.604 88.2521 157.066C88.9443 156.781 90.7487 157.059 91.45 157.559ZM101.571 177.13C102.507 177.522 103.593 178.807 103.765 179.728C104.448 183.375 99.7945 185.481 97.5538 182.538C95.462 179.79 98.4185 175.811 101.571 177.13ZM126.527 185.675C127.83 186.335 128.445 187.313 128.445 188.727C128.445 191.431 125.644 193.119 123.324 191.813C120.806 190.395 120.976 186.801 123.618 185.6C124.766 185.078 125.378 185.094 126.527 185.675ZM307.118 187.26C308.059 187.963 308.513 188.748 308.619 189.851C308.925 193.041 305.384 194.877 302.951 192.791C301.028 191.142 301.355 188.178 303.586 187.038C304.511 186.565 306.343 186.68 307.118 187.26ZM63.1896 193.016C65.0483 194.116 65.2567 197.31 63.5571 198.65C61.0803 200.601 57.3227 198.535 57.8091 195.489C58.2236 192.892 60.9009 191.662 63.1896 193.016ZM344.41 199.674C345.679 200.317 346.49 202.139 346.114 203.502C345.457 205.887 342.969 206.903 340.841 205.654C339.792 205.038 339.245 204.044 339.245 202.755C339.245 200.018 341.929 198.417 344.41 199.674ZM100.439 205.436C101.642 206.052 102.475 207.665 102.257 208.958C101.943 210.819 100.633 211.962 98.813 211.964C96.9455 211.965 95.5394 210.668 95.3581 208.778C95.0947 206.033 97.9426 204.16 100.439 205.436ZM280.06 206.617C281.67 207.065 282.804 209.133 282.348 210.789C281.679 213.214 278.67 214.243 276.816 212.68C275.92 211.925 275.534 211.098 275.534 209.93C275.534 207.436 277.592 205.93 280.06 206.617ZM305.247 215.124C307.315 216.165 307.743 219.002 306.088 220.698C304.778 222.04 302.796 222.087 301.383 220.809C298.35 218.063 301.597 213.287 305.247 215.124ZM316.583 235.494C318.205 236.784 318.517 238.803 317.335 240.356C315.098 243.294 310.436 241.192 311.118 237.553C311.297 236.598 312.555 235.164 313.454 234.89C314.471 234.581 315.743 234.826 316.583 235.494ZM63.3365 235.609C64.319 236.36 64.7349 237.194 64.7349 238.414C64.7349 242.419 59.4236 243.248 57.9824 239.468C57.5433 238.316 57.7725 237.24 58.6903 236.147C59.8687 234.744 61.897 234.509 63.3365 235.609ZM351.223 241.145C352.527 241.805 353.141 242.783 353.141 244.197C353.141 247.451 349.335 248.923 347.121 246.526C345.519 244.79 346.113 242.071 348.314 241.069C349.462 240.547 350.074 240.563 351.223 241.145ZM67.6899 283.54C68.5282 284.059 69.2145 285.388 69.2164 286.495C69.2177 287.401 68.4839 288.754 67.6589 289.367C67.195 289.711 66.7409 289.815 65.6969 289.815C64.1162 289.815 63.4158 289.416 62.6538 288.082C60.8299 284.886 64.5074 281.569 67.6899 283.54ZM196.875 288.053C199.662 289.934 198.853 293.933 195.566 294.528C193.302 294.937 191.031 292.38 191.694 290.165C192.207 288.449 193.36 287.59 195.17 287.575C195.85 287.569 196.377 287.717 196.875 288.053ZM209.986 287.865C211.499 288.498 212.371 290.51 211.836 292.135C211.526 293.076 210.392 294.105 209.307 294.43C207.043 295.11 204.719 292.967 205.049 290.505C205.352 288.244 207.784 286.943 209.986 287.865ZM162.637 301.801C164.75 302.896 165.198 305.626 163.538 307.289C162.025 308.805 160.073 308.806 158.562 307.292C156.383 305.11 157.907 301.49 161.006 301.488C161.57 301.488 162.304 301.628 162.637 301.801ZM244.323 301.969C245.944 303.075 246.445 304.795 245.627 306.452C244.547 308.637 242.022 309.1 240.152 307.455C238.45 305.959 238.75 303.129 240.738 301.914C241.723 301.312 243.397 301.338 244.323 301.969ZM147.85 338.037C150.629 340.102 149.207 344.426 145.762 344.383C143.718 344.358 142.168 342.583 142.399 340.534C142.524 339.425 143.02 338.654 144.072 337.93C144.68 337.512 145.004 337.444 146.032 337.516C146.827 337.572 147.472 337.757 147.85 338.037ZM184.444 337.781C185.263 338.205 186.109 339.251 186.355 340.141C187.014 342.532 184.508 344.969 182.066 344.31C179.035 343.492 178.511 339.251 181.267 337.843C182.161 337.386 183.627 337.358 184.444 337.781ZM222.677 338.029C223.371 338.536 224.224 340.116 224.224 340.894C224.224 341.741 223.341 343.301 222.572 343.812C221.411 344.585 220.491 344.642 219.22 344.019C216.61 342.74 216.437 339.602 218.885 337.936C219.506 337.513 219.829 337.444 220.86 337.516C221.641 337.571 222.306 337.759 222.677 338.029ZM259.502 337.949C260.557 338.669 261.045 339.457 261.157 340.626C261.47 343.889 257.627 345.7 255.312 343.381C254.361 342.429 254.005 341.169 254.356 339.997C254.625 339.097 255.589 337.998 256.396 337.67C257.272 337.314 258.767 337.449 259.502 337.949Z" stroke="url(#paint1_radial_42_2737)" mask="url(#path-4-inside-1_42_2737)"/>
<path d="M182.635 174.615V218.294H171.995V174.615H182.635ZM211.003 218.729C206.896 218.729 203.122 217.775 199.679 215.867C196.277 213.959 193.56 211.304 191.528 207.903C189.537 204.46 188.541 200.602 188.541 196.33C188.541 192.057 189.537 188.221 191.528 184.819C193.56 181.418 196.277 178.763 199.679 176.855C203.122 174.947 206.896 173.993 211.003 173.993C215.109 173.993 218.863 174.947 222.265 176.855C225.708 178.763 228.404 181.418 230.354 184.819C232.345 188.221 233.34 192.057 233.34 196.33C233.34 200.602 232.345 204.46 230.354 207.903C228.362 211.304 225.666 213.959 222.265 215.867C218.863 217.775 215.109 218.729 211.003 218.729ZM211.003 209.023C214.487 209.023 217.266 207.862 219.34 205.539C221.456 203.216 222.514 200.146 222.514 196.33C222.514 192.472 221.456 189.403 219.34 187.121C217.266 184.798 214.487 183.637 211.003 183.637C207.477 183.637 204.656 184.778 202.541 187.059C200.467 189.341 199.43 192.431 199.43 196.33C199.43 200.188 200.467 203.278 202.541 205.601C204.656 207.882 207.477 209.023 211.003 209.023Z" fill="#31473A"/>
</g>
<defs>
<filter id="filter0_d_42_2737" x="0.505675" y="0.505675" width="402.989" height="393.8" filterUnits="userSpaceOnUse" color-interpolation-filters="sRGB">
<feFlood flood-opacity="0" result="BackgroundImageFix"/>
<feColorMatrix in="SourceAlpha" type="matrix" values="0 0 0 0 0 0 0 0 0 0 0 0 0 0 0 0 0 0 127 0" result="hardAlpha"/>
<feMorphology radius="5.81037" operator="dilate" in="SourceAlpha" result="effect1_dropShadow_42_2737"/>
<feOffset/>
<feGaussianBlur stdDeviation="4.84198"/>
<feComposite in2="hardAlpha" operator="out"/>
<feColorMatrix type="matrix" values="0 0 0 0 0 0 0 0 0 0 0 0 0 0 0 0 0 0 0.25 0"/>
<feBlend mode="normal" in2="BackgroundImageFix" result="effect1_dropShadow_42_2737"/>
<feBlend mode="normal" in="SourceGraphic" in2="effect1_dropShadow_42_2737" result="shape"/>
</filter>
<linearGradient id="paint0_linear_42_2737" x1="202" y1="48.9648" x2="202" y2="345.847" gradientUnits="userSpaceOnUse">
<stop stop-color="#007FFF"/>
<stop offset="1" stop-color="#931414"/>
</linearGradient>
<radialGradient id="paint1_radial_42_2737" cx="0" cy="0" r="1" gradientUnits="userSpaceOnUse" gradientTransform="translate(202 197) rotate(90.0001) scale(148.847 153.076)">
<stop stop-color="#007FFF"/>
<stop offset="1" stop-color="#666666"/>
</radialGradient>
</defs>
</svg>
